inDegrees=no
num_controls=7
num_derivatives=13
num_iterations=63
num_multipliers=7
num_parameters=0
num_slacks=7
num_states=26
objective=0.334301
objective_accelerations=0.036401
objective_balance=0.001306
objective_effort=0.026873
objective_height=0.268246
objective_ligament=0.001475
solver_duration=648.847589
status=Solve_Succeeded
success=true
DataType=double
version=3
OpenSimVersion=4.5
endheader
time	/jointset/ground_pelvis/pelvis_tilt/value	/jointset/ground_pelvis/pelvis_tx/value	/jointset/ground_pelvis/pelvis_ty/value	/jointset/hip_r/hip_flexion_r/value	/jointset/hip_r/hip_adduction_r/value	/jointset/hip_r/hip_rotation_r/value	/jointset/back/lumbar_extension/value	/jointset/patellofemoral_r/patellar_flexion_r/value	/jointset/knee_r/knee_flexion_r/value	/jointset/knee_r/knee_adduction_r/value	/jointset/knee_r/knee_rotation_r/value	/jointset/ankle_r/ankle_angle_r/value	/jointset/subtalar_r/subtalar_angle_r/value	/jointset/ground_pelvis/pelvis_tilt/speed	/jointset/ground_pelvis/pelvis_tx/speed	/jointset/ground_pelvis/pelvis_ty/speed	/jointset/hip_r/hip_flexion_r/speed	/jointset/hip_r/hip_adduction_r/speed	/jointset/hip_r/hip_rotation_r/speed	/jointset/back/lumbar_extension/speed	/jointset/patellofemoral_r/patellar_flexion_r/speed	/jointset/knee_r/knee_flexion_r/speed	/jointset/knee_r/knee_adduction_r/speed	/jointset/knee_r/knee_rotation_r/speed	/jointset/ankle_r/ankle_angle_r/speed	/jointset/subtalar_r/subtalar_angle_r/speed	/forceset/tau_hip_flexion_r	/forceset/tau_hip_adduction_r	/forceset/tau_hip_rotation_r	/forceset/tau_knee_flexion_r	/forceset/tau_ankle_angle_r	/forceset/tau_subtalar_angle_r	/forceset/tau_lumbar_extension	lambda_cid13_p0	lambda_cid14_p0	lambda_cid14_p1	lambda_cid14_p2	lambda_cid14_p3	lambda_cid14_p4	lambda_cid14_p5	/jointset/ground_pelvis/pelvis_tilt/accel	/jointset/ground_pelvis/pelvis_tx/accel	/jointset/ground_pelvis/pelvis_ty/accel	/jointset/hip_r/hip_flexion_r/accel	/jointset/hip_r/hip_adduction_r/accel	/jointset/hip_r/hip_rotation_r/accel	/jointset/back/lumbar_extension/accel	/jointset/patellofemoral_r/patellar_flexion_r/accel	/jointset/knee_r/knee_flexion_r/accel	/jointset/knee_r/knee_adduction_r/accel	/jointset/knee_r/knee_rotation_r/accel	/jointset/ankle_r/ankle_angle_r/accel	/jointset/subtalar_r/subtalar_angle_r/accel	gamma_cid13_p0	gamma_cid14_p0	gamma_cid14_p1	gamma_cid14_p2	gamma_cid14_p3	gamma_cid14_p4	gamma_cid14_p5
1	-0.275274164123251	-0.007073163090681055	0.6373205731157876	1.452053327865461	-0.2373737664702074	-0.09135380393614115	-0.7853913075235578	1.493610639948168	1.493610639948158	-0.1745300855941097	0.1732001107784876	0.4362304966320695	0.1776356704134838	0.07154840055986091	0.006930427916755995	0.01656428995948768	-0.1060806642546152	-0.001309364494502636	-0.001605223875396589	0.001193415390201767	-0.01898419882693163	-0.01898419882693219	0.005267401966712053	-0.0003070703495913723	0.01540520933658999	0.005549133481911911	-0.3624489120771411	0.05112583135004582	0.007860282111483655	-0.4294812941770628	-0.04888723552944155	-0.0001886745497754876	0.3743223082277678	-0.04127281424918756	-68.17598995315078	-16.8556370511494	8.633713627433121	8.485238276745827	-773.8785805386011	51.76805693936373	1.423705906961038	0.1753218228095383	1.864235323286597	-5.679684409670042	0.1962156067168928	-0.2480923333378958	0.102069784505328	-5.105881229277947	-5.105881229277955	1.158668628681068	0.08624751730100622	-1.05893799793258	-0.1719652091600404	-5.39778668670105e-12	2.771407849790564e-09	1.617352198835317e-08	2.540137698893908e-09	-5.533685648727228e-09	-1.780850456839786e-09	1.988350328370426e-08
1.01	-0.2744884998674464	-0.006994923722848898	0.6375790827677691	1.450709998208286	-0.2373772736697105	-0.09137916367350651	-0.7853714923661669	1.493166626123261	1.493166626123253	-0.174416341045254	0.1732011622819022	0.4363319563892408	0.1776822428637265	0.08555145694017215	0.008738280529054657	0.03511606846178054	-0.1625314063154019	0.0005962930191047379	-0.00342430424130462	0.002970380016073829	-0.06975197303895292	-0.06975197303895292	0.01751861466796465	0.0005180793267388417	0.004929651436136441	0.003764265257334538	-0.3632180620808698	0.05112169878280073	0.007865475669784031	-0.4288142228910967	-0.04950402574689128	-0.0001049464395539375	0.3753300677582627	-0.04125868373478906	-68.36408569219351	-16.83111559170669	8.605711696189369	8.299058826625496	-774.03579391213	51.74292049310748	1.3836583139834	0.1866400935998539	1.84741193299212	-5.619688128174088	0.1860025246299535	-0.1424491619255422	0.2456243900614029	-5.052237782231742	-5.052237782231578	1.263912957117939	0.08076887493456131	-1.035427987394904	-0.1818984681619673	6.100492013198677e-09	1.198274434147532e-08	4.382221669175224e-08	5.082478383125311e-08	-1.054404231233031e-08	-6.871080013741582e-09	9.241800430997561e-08
1.02	-0.2735637944857523	-0.006897981206261262	0.6380224627686302	1.448803777325735	-0.2373620719538805	-0.09142144086931042	-0.7853278846448065	1.49221693210322	1.492216932103225	-0.1741789712961286	0.1732104893184791	0.436329947907494	0.177710936463913	0.09935662573717621	0.01067105766785177	0.0535383597357152	-0.2186589093318293	0.002432418570622865	-0.004988715555549298	0.005951928179261593	-0.1201202378536709	-0.12012023785367	0.0299924420200462	0.001348036288492456	-0.005288438516040229	0.001973363470539976	-0.3639872120845624	0.05111756621549237	0.007870669228273652	-0.4281471516051124	-0.05012081596436856	-2.121832946969343e-05	0.3763378272887884	-0.04125078015197241	-68.5591394310688	-16.80099017964742	8.569023260720586	8.108502282045587	-774.3202254882082	51.76188212744607	1.384128390299529	0.2003067281092948	1.838337877614963	-5.615036600798201	0.1823092142990234	-0.1971585230052356	0.342986491968319	-5.025979349817277	-5.025979349817218	1.203191558846863	0.08720897438569711	-1.007444408277084	-0.1731719216034514	1.280158490117579e-08	2.104149854844892e-08	7.383096566108928e-08	9.983882220819126e-08	-1.478195753514082e-08	-1.475355247658505e-08	1.70936085901482e-07
1.03	-0.2725024172560181	-0.00678122008003956	0.6386494319165115	1.44633833996544	-0.2373286997986652	-0.09147834135482642	-0.785248870859339	1.490765068588267	1.490765068588272	-0.1738160556664079	0.1732279214151506	0.4362265147377275	0.1777217211864089	0.1128439641191266	0.01268860562744883	0.07183486570016107	-0.2743271616477401	0.004246440168180633	-0.006370645799392222	0.01001198416736387	-0.1702336276335951	-0.1702336276335943	0.04260004880424897	0.002115616936020769	-0.01540842821563618	0.0001861303038498411	-0.3638466040511035	0.05115035222965981	0.00798612746838006	-0.427770670935995	-0.05030010603376359	-2.983950705290348e-05	0.3765483497498121	-0.04127167158965359	-68.60799931974954	-16.79931788043348	8.55279808887312	8.062889437271762	-774.2412859479402	51.76201282740267	1.31981368484211	0.2035907098309579	1.822211754019502	-5.527504073684995	0.1816316005831953	-0.1055862021454878	0.4616884398522849	-5.001197108885463	-5.001197108885467	1.29094529996327	0.06815712136629036	-1.015810159215589	-0.1810826780889438	1.950875129005181e-08	3.009869579333363e-08	1.038637968168135e-07	1.488603033631353e-07	-1.901199070243303e-08	-2.266451721397895e-08	2.495152244375317e-07
1.04	-0.2713084112179199	-0.006644061098232215	0.6394587470836673	1.443319263176665	-0.2372770508338468	-0.09154843632822647	-0.7851244218564587	1.488812635512154	1.488812635512165	-0.1733267839565077	0.1732523542205602	0.4360215748892795	0.1777147168444609	0.1258823874090514	0.01475062878498057	0.09000756359099202	-0.3293867950315486	0.006087780489714954	-0.007627613126107436	0.01503897166029753	-0.2202341500857345	-0.2202341500857344	0.05526365805870926	0.002748178040746199	-0.02558977425181668	-0.001584449418327247	-0.363705996017575	0.05118313824377849	0.008101585708731292	-0.4273941902668525	-0.05047939610318707	-3.846068474769418e-05	0.3767588722108986	-0.04129877560803212	-68.66377585365559	-16.79208955140517	8.527957017376185	8.011510758677183	-774.289647266943	51.80602423931682	1.294345371894299	0.2092017676963542	1.813576262891996	-5.493312814377842	0.1877729590942944	-0.1721659395797004	0.5363727929345102	-5.003405884260293	-5.003405884260347	1.214392052898388	0.06020506582514216	-1.019715675593765	-0.1698412327007947	2.482282041236211e-08	3.811965166174683e-08	1.338378402043199e-07	1.929088633608958e-07	-2.339384028854463e-08	-2.864470484589316e-08	3.180259318672401e-07
1.05	-0.2699858054965153	-0.006485996381266197	0.6404491425856025	1.439752234413941	-0.2372068890942551	-0.09163071153981323	-0.7849451431767491	1.486360905635839	1.48636090563584	-0.1727108408832023	0.1732824582919683	0.4357146146223536	0.177690080439671	0.1386065722466313	0.01687598018752691	0.1080478622161568	-0.3839540018748039	0.007945153579814559	-0.008820796709908631	0.02095437163127238	-0.2700780765525018	-0.2700780765525008	0.06791957362620769	0.003251308265119119	-0.03580300276612081	-0.003341945491507094	-0.3634948414493413	0.05120494206816629	0.008259250227542344	-0.4265997493406791	-0.05075793696316596	-4.836188847942269e-05	0.3769318932267225	-0.04132802392360825	-68.72848914351867	-16.77943282905546	8.493628148290554	7.939780170079846	-774.0282622080159	51.79845656106944	1.256636076366487	0.21624606334694	1.795698502696245	-5.428672896006399	0.1848378586732936	-0.09187843312489051	0.6397647013826545	-4.969829805973135	-4.969829805972914	1.290377139301916	0.04223015097092426	-1.022233699281367	-0.1785170752851454	3.009335524509224e-08	4.61082249871453e-08	1.638100464740695e-07	2.368020195724942e-07	-2.778043413774434e-08	-3.456455569326114e-08	3.862220008248755e-07
1.06	-0.2685369217193949	-0.006306269302911662	0.6416192294418613	1.435641483927464	-0.2371181299488143	-0.09172471536032863	-0.7847025822768849	1.483411747739238	1.483411747739233	-0.1719685014881158	0.1733169662956504	0.4353055006183005	0.1776479064180181	0.1511379985512787	0.01908310106268433	0.1259458344559946	-0.4381311397863394	0.009807261658142998	-0.009973334907497151	0.02769541569038275	-0.3197197541427949	-0.3197197541427926	0.0805429224187653	0.003628964498594645	-0.04602052167772574	-0.005091972791029715	-0.3632836868810259	0.05122674589252665	0.008416914746609435	-0.4258053084144797	-0.05103647782316954	-5.826309228094689e-05	0.3771049142426213	-0.04136370444147934	-68.80026448330038	-16.761364690614	8.450842514802305	7.862270504002856	-773.8961184504786	51.83427559354407	1.25579366530768	0.2255556622186827	1.785110985826613	-5.415299028033946	0.188719956740022	-0.1640368623371705	0.7015016105615438	-4.962956108965427	-4.962956108965399	1.207878697910247	0.03511026764568714	-1.020573755053716	-0.1683474779693093	3.5215848315843e-08	5.366697151086323e-08	1.922983914974499e-07	2.80357729700469e-07	-3.182969524352696e-08	-4.01265082917123e-08	4.509437629812674e-07
1.07	-0.2669636147453448	-0.006104045083765572	0.6429675435319431	1.430990914421463	-0.2370106732285567	-0.09183077071182132	-0.7843886567414978	1.479967138514562	1.479967138514559	-0.1711009092489072	0.173354576303697	0.4347941453779912	0.1775883671791695	0.1634962138192412	0.02137707598344663	0.1436890391891177	-0.4919154123828141	0.01168943363071046	-0.01128839899620587	0.03521266929065784	-0.3691719792965593	-0.3691719792965601	0.09290501171289342	0.003867447865287504	-0.05625608843668088	-0.006806836495330711	-0.3626744352041809	0.05122121607266668	0.008632046352358	-0.4248718474180553	-0.05108250096451695	-0.0001030073407380653	0.3769655115153243	-0.04140802140520989	-68.77572104626555	-16.74280184269855	8.409392225461463	7.743216283877153	-773.3987918252021	51.84062790415564	1.221769862206824	0.233611160635343	1.764724349160473	-5.349877722459996	0.1888105844129225	-0.1228117409431456	0.7952839201042418	-4.931847132522805	-4.931847132523238	1.239788291961395	0.01446379072782036	-1.025880945165321	-0.1716269265102812	4.033046682478636e-08	6.120285490683218e-08	2.207078077311298e-07	3.238954905686765e-07	-3.586101311827675e-08	-4.566942374926362e-08	5.154807215844016e-07
1.08	-0.2652675387376776	-0.005878422564685445	0.6444924494957753	1.425804524920112	-0.2368842258351888	-0.09195149081596944	-0.7839958693330369	1.476028908755559	1.476028908755558	-0.1701118132674088	0.1733938204293176	0.434180267908322	0.1775119650813085	0.1756918052738536	0.02376276104949204	0.1612642092064169	-0.5452951388595227	0.01360539627918934	-0.01290628543713307	0.04346779030467189	-0.4184438610079571	-0.4184438610079611	0.1048436708789156	0.003955788013849324	-0.06652496754958788	-0.008464544593622109	-0.3620651835272805	0.05121568625280967	0.008847177958254366	-0.4239383864216166	-0.0511285241058755	-0.0001477515891984308	0.3768261087880789	-0.04145897718522505	-68.75844772195578	-16.71915660211849	8.359871861398323	7.618314548043074	-773.0332074574228	51.88892865952418	1.223268902637528	0.2438976912754118	1.751504042661843	-5.334389804080808	0.1954780919222692	-0.2246013327808719	0.8490750933092747	-4.926887420492076	-4.926887420492045	1.123192672289084	0.005081624019505366	-1.027236225843882	-0.156916356767353	4.253595611762016e-08	6.447458578261068e-08	2.349433873037746e-07	3.438531925182633e-07	-3.78370016869077e-08	-4.880851370645774e-08	5.431115471475524e-07
